<svg width="25" height="26" viewBox="0 0 25 26" fill="none" xmlns="http://www.w3.org/2000/svg">
<g clip-path="url(#clip0_23_687)">
<path d="M9.37504 3.16943H15.625L17.7084 5.28239H21.875C22.1513 5.28239 22.4163 5.3937 22.6116 5.59182C22.807 5.78995 22.9167 6.05867 22.9167 6.33886V21.1295C22.9167 21.4097 22.807 21.6785 22.6116 21.8766C22.4163 22.0747 22.1513 22.186 21.875 22.186H3.12504C2.84877 22.186 2.58382 22.0747 2.38847 21.8766C2.19312 21.6785 2.08337 21.4097 2.08337 21.1295V6.33886C2.08337 6.05867 2.19312 5.78995 2.38847 5.59182C2.58382 5.3937 2.84877 5.28239 3.12504 5.28239H7.29171L9.37504 3.16943ZM12.5 20.0731C14.1576 20.0731 15.7474 19.4052 16.9195 18.2165C18.0916 17.0277 18.75 15.4154 18.75 13.7342C18.75 12.053 18.0916 10.4407 16.9195 9.25195C15.7474 8.06318 14.1576 7.39534 12.5 7.39534C10.8424 7.39534 9.25273 8.06318 8.08062 9.25195C6.90852 10.4407 6.25004 12.053 6.25004 13.7342C6.25004 15.4154 6.90852 17.0277 8.08062 18.2165C9.25273 19.4052 10.8424 20.0731 12.5 20.0731ZM12.5 17.9601C11.395 17.9601 10.3352 17.5149 9.55376 16.7224C8.77236 15.9299 8.33337 14.855 8.33337 13.7342C8.33337 12.6134 8.77236 11.5385 9.55376 10.746C10.3352 9.95352 11.395 9.5083 12.5 9.5083C13.6051 9.5083 14.6649 9.95352 15.4463 10.746C16.2277 11.5385 16.6667 12.6134 16.6667 13.7342C16.6667 14.855 16.2277 15.9299 15.4463 16.7224C14.6649 17.5149 13.6051 17.9601 12.5 17.9601Z" fill="black"/>
</g>
<defs>
<clipPath id="clip0_23_687">
<rect width="25" height="25.3554" fill="white"/>
</clipPath>
</defs>
</svg>