<svg width="25" height="26" viewBox="0 0 25 26" fill="none" xmlns="http://www.w3.org/2000/svg">
<path d="M19.2612 22.8199C18.2913 19.7785 16.415 17.8946 13.9287 15.7178C16.3617 13.7452 19.3851 12.6728 22.5 12.6777V2.53554H23.76C24.445 2.53554 25 3.0997 25 3.79444V24.0965C24.9977 24.4295 24.8664 24.7482 24.6344 24.9837C24.4023 25.2193 24.0883 25.3528 23.76 25.3554H1.24C0.911017 25.3551 0.595621 25.2223 0.363112 24.9863C0.130603 24.7502 -1.66819e-07 24.4302 0 24.0965L0 3.79444C0.00228756 3.4615 0.133625 3.14283 0.365641 2.90728C0.597657 2.67173 0.911725 2.5382 1.24 2.53554H5V0L7.5 0V5.07109H2.5V13.9455C9.025 13.9455 14.5775 17.0668 16.6413 22.8199H19.2612ZM20 0V5.07109H10V2.53554H17.5V0L20 0ZM18.125 11.41C17.6277 11.41 17.1508 11.2096 16.7992 10.853C16.4475 10.4963 16.25 10.0126 16.25 9.50829C16.25 9.00394 16.4475 8.52025 16.7992 8.16362C17.1508 7.80699 17.6277 7.60663 18.125 7.60663C18.6223 7.60663 19.0992 7.80699 19.4508 8.16362C19.8025 8.52025 20 9.00394 20 9.50829C20 10.0126 19.8025 10.4963 19.4508 10.853C19.0992 11.2096 18.6223 11.41 18.125 11.41Z" fill="black"/>
</svg>

